<?xml version="1.0" encoding="utf-8"?>
<!-- Generator: Adobe Illustrator 24.3.0, SVG Export Plug-In . SVG Version: 6.00 Build 0)  -->
<svg version="1.1" id="Layer_1" xmlns="http://www.w3.org/2000/svg" xmlns:xlink="http://www.w3.org/1999/xlink" x="0px" y="0px"
	 width="100px" height="100px" viewBox="0 0 100 100" enable-background="new 0 0 100 100" xml:space="preserve">
<path fill="#D32F2F" d="M63.5,21.1c0,0,0.7-12.9-3.8-16.8c0.8,2.4-1.1,4.1-1.1,4.1S59.3-0.5,42.2,0c5.2,2.7,6.6,6,6.6,6
	s-4.7-2.7-9.3-1.2s-5.4,3.7-9,3.4c4.2,2.3,7,0.8,8.8,2.5s4.2,7.6,4.2,7.6s-2.8-1.3-7.9-0.8c2.5,0.5,5.7,4.3,6.2,5.4
	c-2-0.6-6.8-1.2-8,1.2c1.2,0.7,1.3,3,1.2,4.7c-0.1,1.6,1.3,4.7,2.2,4.3L63.5,21.1z"/>
<path fill="#F96F00" d="M86.7,43.2c-0.1-0.5-0.7-3.1-2.5-3.6c-2-0.6-3-0.3-3-0.3l-4.3-11.1L78,25l-3-14.3c0,0-3.5-4.5-5.7-6.1
	c-1.3-0.9-2.4-1.3-3.5-1.3c0,0,0,0,0,0l1.8,17.8l-11.7-0.1c-2.5,0.3-6.7,5.3-7.6,6.1c-0.9,0.8-7.6,3.9-9.4,4.4
	c-1.8,0.5-9,0.2-11.1,0.1c-0.7,0-12.4-1.4-16.6-1.5C4.8,30-0.4,31.3,0,32.6c0.4,1.4,11.4,15.1,18.1,20c6.6,4.8,13-0.5,13.1-0.6
	c-1.2,1.2-2.2,2.6-3,4.1c1.2-1.2,2.2,0.3,3.8-1.8c-2.1,4.8,0.1,10.2,0.1,10.2c1.4-6,6.6-9.8,11-14.2l25.5,10.2L90.2,52V41.4
	C89.4,42.4,88.1,43,86.7,43.2z"/>
<path fill="#F29C33" d="M90.2,41.4c0,0-0.4,4-8.1,10.5s-14.1,4.6-20.7,3.5c-6.5-1.1-19.5-9.8-19.5-9.8c-2.8-2-5.7-0.7-7.4-0.2
	c0.9,0,2.2,0.8,2.9,1.1c-2.7,0.9-4.6,3.7-4.6,3.7l2.9-0.8c-2.3,3.1-1.5,16-0.3,19.7l1.9-3.9c-0.4,3.9,5,24.4,6.5,26.8
	c0,0,1.3-5.4,1.7-4.5c0.3,0.7,2.1,9.8,2.1,9.8s1.3-4.9,1.6-5.1c0.3-0.2,2.3,7.3,2,7.7c2.4-2.6,6.5-10.3,6.4-11.5
	c0.2,0.8,0.7,3.3,0.7,3.9c0.3-0.6,4.2-7.2,5.8-8.3c1.4,0,12.6-1.6,12.7-10.1c0.1-5.8,0.4-8.2,0.8-9.2c0.2-0.4,0.4-0.6,0.5-0.8
	c13.7-1,15.6-19.9,15.6-19.9L90.2,41.4z"/>
<path fill="#2E0000" d="M70.1,64l3.7,3.7L69,76.3l-21.4-2l-0.7-7.2c0,0,0,0,0,0c-0.8-1.7-1.3-3.3-1.8-4.7c-1.2-3.8-1.5-6.3-1.6-7.7
	c0-0.6,0.3-1.2,0.9-1.4l0.4-0.2C44.8,53.1,55.2,62.3,70.1,64z"/>
<path fill="#C49C9F" d="M44.8,55.2L44.8,55.2C44.8,55.3,44.8,55.3,44.8,55.2z"/>
<path fill="#F99574" d="M31.6,48.9c0,0-2,2.8-8.3,1.8S8.8,43.5,4.2,33.3c3.1-0.8,6.5-1.2,9-0.7c2.7,0.5,23.2,8.2,23.2,8.2
	C32.8,40,23.5,41.1,22,41.4c1.4,0.4,5.1,3.4,7.1,5c-1.7,0.5-2.6,0.8-4,1.7C27.1,47.9,29.1,48.8,31.6,48.9z"/>
<path fill="#E8DDE3" d="M68.8,42.8c-0.4,1.3-1.6,3.4-5.1,4.3c-5.7,1.5-9.8,0.2-10.9-0.2c-1.1-0.3-2.6-1.8-3.2-4.8s0.1-13.6,8.3-14.1
	c3.3-0.2,6.1,1.9,7.4,5.1c1.2,2.8,2.4,6.2,3.2,9C68.7,42.3,68.8,42.6,68.8,42.8z M79.3,32.2c-0.8-1.6-3.5-7.5-5.5-7.3
	c-2,0.2-2.7,5.7-2.7,5.7s1,4,1,4.1c0,0,1.7,3.9,1.9,4.1c0.2,0.2,2.1,2.4,2.9,2.6c1.1,0.2,4.5-0.3,4.7-0.6
	C81.9,40.6,80.1,33.8,79.3,32.2z"/>
<path fill="#2E0000" d="M72,13.9l-4.1,10.2l-3.6-3.6c1.1-2.6,4-12.7-0.8-16.6c0.8-0.3,1.5-0.5,2.3-0.5h0c0,0,0,0,0,0l0,0
	C67.9,3.8,72,9.4,72,13.9z"/>
<path fill="#2E0000" d="M65.7,33.7L65.7,33.7c-0.7-0.7-1.5-1-2.2-0.7c-1.5,0.5-1.8,3.4-0.7,6.4c1.1,3.1,3.1,5.1,4.6,4.6
	c0.7-0.2,1.1-1,1.3-2C67.9,39.3,66.9,36.5,65.7,33.7z M76,35.1c-0.7-2.1-2.1-3.5-3-3.1c-0.7,0.2-1,1.3-0.8,2.7c0,0,0.2,0.7,0.2,0.7
	c0.3,0.9,1.5,3.2,1.6,3.4c0.5,0.5,1.1,0.8,1.5,0.6C76.5,39.1,76.7,37.2,76,35.1z"/>
<path fill="#70101E" d="M97.9,29c-1.9-1.4-5.6-0.4-7,2.4c-1.4,2.8-2.6,11.9,2,12.9c4.3-1.4,6.7-6.8,6.9-8.3
	C100.1,34.5,100.3,30.7,97.9,29z"/>
<path fill="#70101E" d="M69.3,26.1c0,0,0.1-3.3-0.4-4.5c-0.6-1.2-2.6-3.8-0.8-6.8c0.4,0.9,1.3,1.1,1.7,1c0.4-0.2,3.8-6.4,5.6-6.2
	c1.8,0.2,5,2.5,5.5,6.3s0.4,9-2.2,10.8c-0.8-0.6-1.7-6.7-2.6-6.8c-1,0.6-4.1,4.4-4.4,4.8C71.2,25.2,69.3,26.1,69.3,26.1z M65,27
	c0,0-0.4-2.2,0-3s0.9-1.8,1.1-4.1c0.2-3.7-2-4.9-2-4.9s-0.2,1.4-1,1.1s-3.2-3.5-3.9-3.9c-0.6-0.4-1.7-1.5-4-1.5S42,14.2,38.3,26.2
	c0.3,0.6,4.9-0.7,5.5-1.8c-0.4,1.3-1.9,5.1,0.1,7c2.3-4,5.4-10.3,10.5-10.1s5.7,3.3,6.1,3.7C60.9,25.4,64.2,26.8,65,27z"/>
<path fill="#E8DDE3" d="M47.6,62.4l1,1.4c-0.3,0.2-1.2,0.8-2.5,1.6c-0.1-0.3-0.2-0.6-0.4-0.9c-0.3-0.8-0.6-1.5-0.8-2.2l0.1,0
	c0,0,1.2-0.5,1.3-0.5C46.9,61.9,47.4,62.1,47.6,62.4z M75.4,64.8c0.9,0.1,2.3,0.1,3.4-0.8c-1,0.1-2.4,0.2-3.1,0.2
	c-2.5,0.1-5.7-0.2-5.7-0.2c-14.9-1.6-25.2-10.9-25.2-10.9s-1.1,3.5,1.8,4.8c0.9,1.3,2.5,2.7,4.4,2.5c1.8,1.5,3.1,2.3,5.5,1.7
	c2.8,1.9,2.8,3,3.2,3.1c0.4,0.1,2.2-0.1,3.3-1.1c1,0.8,3.7,2.2,6.2,1.3c0,0,0.8,0.4,2,0.4c-0.3,1-1.2,7.6-5.9,9
	c-2.8,0.6-5.5-0.3-7.8-1.6c-0.5,1.3-1.4,3.1-2.5,4.7c0.6,0.2,1.2,0.4,1.6,0.4c0.4,1.7,4.3,1.8,6.3,1.5c1.3,1.4,6,0.3,6.7-1
	c1.5,0.1,3.2-2.1,3.6-3.9c0.1,0,0.8-0.7,1.1-1.7c0.4-1.4,0-2.6,0-2.6l1.3-2.1c0.2-0.2,0.3-0.5,0.3-0.8c0.1-0.4,0-0.9-0.2-1.2
	c0,0-0.6-1.3-0.7-1.3C75.3,65,75.4,64.9,75.4,64.8z"/>
<path fill="#D32F2F" d="M57.8,72.7c-0.7,1.9-2.2,4.8-4.1,7.2c-2.6,3.4-8.8,5.1-9.7,5.3c-1,0.2-5.6,0.2-8.2-4.4
	c-1.9-3.4-0.5-9.2,2-10.8c2.5-1.6,9.2-4.8,10.2-5.5c1.3-1,1.2-1.6,2-1.7c1.4-0.2,3.3,1.1,2.6,4.8c-0.3,1.8-3.7,5.4-3.2,5.9
	c0.6,0.5,4.3-3,4.8-5.6c0.2-1.1,1.6-1.3,2.5-1C59,67.8,58.5,70.8,57.8,72.7z"/>
</svg>
