<?xml version="1.0" encoding="utf-8"?>
<!-- Generator: Adobe Illustrator 24.3.0, SVG Export Plug-In . SVG Version: 6.00 Build 0)  -->
<svg version="1.1" id="Layer_2" xmlns="http://www.w3.org/2000/svg" xmlns:xlink="http://www.w3.org/1999/xlink" x="0px" y="0px"
	 width="44.5px" height="44.5px" viewBox="0 0 44.5 44.5" enable-background="new 0 0 44.5 44.5" xml:space="preserve">
<path fill="#00AEFF" d="M39.9,29.5h-9.6v1.6h9.6c1.3,0,2.3-1,2.3-2.3v-1.6C42.2,28.5,41.2,29.5,39.9,29.5z M28,41.4l-11.5,0
	c-1.3,0-2.3-1-2.3-2.3v1.6c0,1.3,1,2.3,2.3,2.3H28c1.3,0,2.3-1,2.3-2.3v-1.6C30.3,40.4,29.3,41.4,28,41.4z M14.2,29.5H4.6
	c-1.3,0-2.3-1-2.3-2.3v1.6c0,1.3,1,2.3,2.3,2.3h9.6V29.5z"/>
<path fill="#FFFFFF" d="M39.9,13.4l-9.6,0l0-9.6c0-1.3-1-2.3-2.3-2.3l-11.5,0c-1.3,0-2.3,1-2.3,2.3l0,9.6l-9.6,0
	c-1.3,0-2.3,1-2.3,2.3l0,11.5c0,1.3,1,2.3,2.3,2.3l9.6,0l0,9.6c0,1.3,1,2.3,2.3,2.3l11.5,0c1.3,0,2.3-1,2.3-2.3l0-9.6l9.6,0
	c1.3,0,2.3-1,2.3-2.3l0-11.5C42.2,14.4,41.2,13.4,39.9,13.4z"/>
<g>
	<linearGradient id="SVGID_1_" gradientUnits="userSpaceOnUse" x1="22.4046" y1="4.8548" x2="22.4046" y2="37.5721">
		<stop  offset="0" style="stop-color:#0D88CD"/>
		<stop  offset="1" style="stop-color:#004362"/>
	</linearGradient>
	<path fill="url(#SVGID_1_)" d="M25.6,25.6c0,0.2,0.1,0.5,0.1,0.8c0,0.1,0,0.2,0,0.2c-0.1,0.3-0.2,0.7-0.2,0.7c0,0-0.3,0.4-0.4,0.7
		c-0.1,0.4-0.2,1-0.2,1l0,0l0,0c0,0-0.6,0.3-0.9,0.5c-0.3,0.2-0.6,0.4-0.7,0.6l0,0l0,0c0,0-0.7,0.1-0.9,0.2c0,0,0,0,0,0
		c0,0.1-0.1,0.1-0.1,0.1c-0.2,0-0.2-0.2-0.3-0.2c0,0-0.1,0-0.2,0.1c-0.1,0.1-0.3,0.2-0.5,0.2c-0.3,0-0.8-0.1-0.9-0.1
		c0,0-0.1,0-0.2,0c-0.2,0-0.4,0-0.5,0c0,0,0,0-0.1,0l0,0.1l-0.1,0c-0.1-0.1-0.1-0.1-0.2-0.1l-0.1-0.1l0.1,0c0,0,0.3-0.1,0.4-0.2l0,0
		c0,0,0,0,0,0c0,0,0,0,0,0c0,0,0-0.1,0-0.1c0-0.1,0.1-0.2,0.1-0.3c0.1-0.3,0.1-0.6,0.2-0.8c0-0.8,0.1-1.3,0.1-1.7c0-0.2,0-0.4,0-0.7
		c0-0.1-0.1-0.9-0.1-1.4c0-0.9,0.1-1.8,0.1-2.4c0-0.1,0-0.2,0-0.3l0-0.1l0.1,0c0.1,0,0.2-0.1,0.2-0.1l0-0.7L20,21.2l0-1
		c0-0.2,0.1-0.3,0.1-0.3c0,0,0-0.1,0-0.2c0-0.1,0-0.3,0-0.3L20,19v-3.6l0,0c0.1-0.1,0.1-0.1,0.1-0.1c0,0,0-0.1,0-0.2
		c0-0.1,0-0.2,0-0.2l0,0c0,0,0,0-0.1-0.1c0,0-0.1,0-0.1,0c0,0,0,0,0,0c0,0,0,0-0.1,0h0c0,0,0,0,0,0c0,0,0,0,0-0.1c0,0,0,0,0,0
		c0,0-0.1-0.1-0.1-0.1l-0.5-0.5c-0.1-0.1-0.1-0.1-0.1-0.1c0,0-0.1-0.1,0-0.1c0,0,0-0.1,0-0.1c0-0.1,0-0.2,0-0.2c0,0,0,0,0.1-0.2l0,0
		H20c0.1-0.1,0.3-0.1,0.6-0.1c0.3,0,0.5-0.1,0.6-0.1l0.8,0c0.8,0,1-0.1,1.4-0.1c0.2,0,0.4,0,0.6,0.1l0,0l0,0
		c0.1,0.2,0.3,0.3,0.4,0.4c0,0,0,0,0.1,0c0.1,0,0.2,0,0.4,0.1c0.5,0.3,0.7,1.1,0.7,1.5c0,0.4,0.1,0.8,0.1,1.1c0,0.2,0,0.3-0.1,0.4
		l-0.5,1c-0.2,0.4-0.7,0.9-0.8,1.1c0,0,0.1,0.1,0.2,0.1c0.1,0.1,0.3,0.1,0.5,0.1c0.1,0,0.2,0.1,0.2,0.2c0,0.2-0.1,0.4-0.2,0.4
		c0,0,0,0,0,0c0,0,0,0.1,0,0.1c0,0,0.1,0.1,0.1,0.1c0,0,0,0,0,0l0-0.1l0,0c0.2,0.2,0.2,0.3,0.3,0.3c0,0,0,0,0.1,0.1l0,0l0,0
		c0,0-0.1,0.5-0.1,1c0,0.2,0,0.5,0.1,0.7c0,0.1,0.3,0.2,0.3,0.4c0,0,0,0.1,0,0.1c0,0.1,0,0.2,0,0.3c0,0.1,0,0.2,0,0.3c0,0,0,0,0,0.1
		c0,0.4,0.1,0.9,0.1,1.3C25.9,24.9,25.8,25.2,25.6,25.6C25.6,25.5,25.6,25.5,25.6,25.6z M23.7,15.7C23.7,15.7,23.7,15.7,23.7,15.7
		l0.2-0.2c-0.2-0.1-0.4,0.1-0.6-0.3l-0.1,0l-0.6,0.1l0-0.1c0,0,0,0,0,0c0,0,0,0-0.1,0c0,0.1,0,0.1,0,0.2c0,0.1,0,0.1-0.1,0.2v2.7
		c0.1,0,0.1,0,0.1,0h0c0.1,0,0.1,0,0.2,0c0.3-0.1,0.2-0.8,1-0.9c0-0.1,0-0.2,0-0.3c0-0.3,0-0.7,0.1-0.9
		C23.8,16.1,23.7,15.9,23.7,15.7z M23.8,25.4c0-0.1,0.1-0.2,0-0.2c0,0,0-0.1-0.1-0.1l-0.1,0l0.1,0c0,0,0.1-0.1,0.1-0.1
		c0-0.2-0.2-0.5-0.2-0.7c0-0.1,0-0.3,0.2-0.3c0-0.3-0.1-0.4-0.1-0.4c-0.1-0.1-0.1-0.1-0.1-0.4c0-0.2,0.1-0.4,0.1-0.6
		c0-0.1,0-0.1,0-0.1l0,0l0,0c0-0.1,0-0.1,0-0.2c0-0.2-0.1-0.3-0.1-0.3l-0.1-0.1l0.1,0c0,0,0,0,0,0c0,0-0.1-0.1-0.1-0.2
		c0,0,0-0.1,0-0.1c0,0,0,0,0-0.1c0-0.1-0.2-0.3-0.2-0.3c-0.3-0.1-0.6-0.4-0.6-0.5L22.4,20c0,0.2,0,0.5,0,0.8c0,0.2,0,0.4,0,0.6l0,0
		l0,0c-0.1,0.1-0.1,0.2-0.1,0.3c0,0.3,0.1,0.6,0.1,0.6l0,0l-0.2,0.7l0,0c-0.1,0-0.1,0.1-0.1,0.1c0,0,0,0,0,0c0,0.1,0,0.1,0.1,0.2
		l0,0v2.7l0,0c-0.1,0.1-0.1,0.1-0.1,0.2c0,0.1,0,0.1,0,0.1c0,0,0,0,0,0c0,0.1,0,0.5,0,1.1c0,0,0,0.3,0,0.5c0,0,0,0,0,0c0,0,0,0,0,0
		c0,0.1-0.1,0.2-0.2,0.3c0,0.1-0.1,0.1-0.1,0.2c0.1,0,0.3,0,0.4-0.1l0.3-0.3l0,0c0.2,0,0.5-0.5,0.7-0.7c0.2-0.2,0.1-0.7,0.2-1.2l0,0
		l0,0l0,0c0,0,0,0,0,0c0,0,0-0.1,0-0.1c0-0.1,0.1-0.2,0.1-0.3C23.7,25.8,23.8,25.6,23.8,25.4C23.8,25.5,23.8,25.5,23.8,25.4
		C23.8,25.5,23.8,25.5,23.8,25.4z M11,18.8c0-0.4-0.6-0.6-1-0.3l-3.5,2.6c-0.2,0.2-0.2,0.4,0,0.6l3.5,2.6c0.4,0.3,1,0.1,1-0.3V18.8z
		 M19.6,9.7h5.3c0.4,0,0.6-0.6,0.3-1l-2.6-3.5c-0.2-0.2-0.4-0.2-0.6,0l-2.6,3.5C19,9.1,19.2,9.7,19.6,9.7z M24.9,33.5h-5.3
		c-0.4,0-0.6,0.6-0.3,1l2.6,3.5c0.2,0.2,0.4,0.2,0.6,0l2.6-3.5C25.4,34.1,25.3,33.5,24.9,33.5z M38.3,21.1l-3.5-2.6
		c-0.4-0.3-1-0.1-1,0.3v5.3c0,0.4,0.6,0.6,1,0.3l3.5-2.6C38.5,21.6,38.5,21.3,38.3,21.1z"/>
</g>
</svg>
