<?xml version="1.0" encoding="utf-8"?>
<!-- Generator: Adobe Illustrator 26.0.3, SVG Export Plug-In . SVG Version: 6.00 Build 0)  -->
<svg version="1.1" id="Layer_1" xmlns="http://www.w3.org/2000/svg" xmlns:xlink="http://www.w3.org/1999/xlink" x="0px" y="0px"
	 viewBox="0 0 512 512" style="enable-background:new 0 0 512 512;" xml:space="preserve">
<style type="text/css">
	.st0{fill:#ED6516;}
	.st1{fill:#FFFFFF;}
</style>
<g>
	<path class="st0" d="M149.8,149.9c27.2-27.2,64.7-44,106.1-44s79,16.8,106.1,44l42.5-42.5c-38-38-90.5-61.5-148.6-61.5
		s-110.5,23.5-148.6,61.5L149.8,149.9z"/>
	<path class="st1" d="M416.8,120.8l-42.7,42.7c20,25.5,31.9,57.6,31.9,92.5c0,28.3-7.8,54.7-21.4,77.3l-77.3-77.3l-42.1-98.9H265
		v133.6l83.4,83.4c-25.5,20-57.6,31.9-92.5,31.9s-67-11.9-92.5-31.9l83.4-83.4V157.6l-42.3,98.4l-77.3,77.3
		c-13.6-22.6-21.4-49-21.4-77.3c0-34.9,11.9-67,31.9-92.5l-42.7-42.7c-30.7,36.5-49.2,83.7-49.2,135.1c0,116,94.1,210.1,210.1,210.1
		S466,372,466,255.9C466,204.5,447.5,157.3,416.8,120.8z"/>
	<g>
		<g>
			<g>
				<g>
					<path class="st1" d="M411,431h-1.5v2.2h-0.8v-5.9h2.4c1.1,0,1.8,0.7,1.8,1.9c0,0.9-0.5,1.6-1.3,1.8l1.4,2.3h-0.9L411,431z
						 M409.5,430.3h1.6c0.7,0,1.2-0.5,1.2-1.2c0-0.7-0.4-1.2-1.2-1.2h-1.6V430.3z"/>
				</g>
				<path class="st1" d="M410.8,435.7c-3.1,0-5.5-2.5-5.5-5.5c0-3.1,2.5-5.5,5.5-5.5s5.5,2.5,5.5,5.5
					C416.3,433.3,413.8,435.7,410.8,435.7z M410.8,425.4c-2.7,0-4.8,2.1-4.8,4.8s2.1,4.8,4.8,4.8s4.8-2.1,4.8-4.8
					C415.6,427.6,413.4,425.4,410.8,425.4z"/>
			</g>
		</g>
	</g>
</g>
</svg>
